:FULLY-SPECIFIED
:FORCE-ALL-JOINTS-BE-3DOF
:DEGREES
204
root 4.89678 15.2178 -25.4613 7.29319 2.21509 4.69005
lfemur 3.6154 -4.63843 2.76647
ltibia 8.20538 0 0
lfoot -29.665 -14.702 0
ltoes 49.7685 0 0
rfemur -28.4629 -17.9697 -7.79284
rtibia 48.8673 0 0
rfoot -27.1017 13.2925 0
rtoes 58.0857 0 0
lowerback -2.295 -2.01666 -0.860754
upperback -0.627092 -2.62965 -6.76262
thorax 0.360834 -1.32936 -6.61338
lowerneck -11.4251 -0.0653987 5.13214
upperneck 3.42709 -0.999977 2.81518
head 3.14804 -0.295605 -0.046031
lclavicle 1.57206e-14 6.8912e-15 0
lhumerus -57.8739 -44.3236 115.338
lradius 54.8789 0 0
lwrist 23.8967 0 0
lhand 38.1866 29.5518 0
lfingers 7.12502 0 0
lthumb 60.8535 42.2335 0
rclavicle 1.57206e-14 6.8912e-15 0
rhumerus -22.1279 -4.8767 -30.8172
rradius 88.3881 0 0
rwrist -21.5139 0 0
rhand -25.1315 -44.3433 0
rfingers 7.12502 0 0
rthumb 1.15663 -547.987 0
205
root 4.87245 15.1927 -25.4733 7.35175 1.82847 4.70304
lfemur 3.76856 -4.51352 2.68274
ltibia 8.25384 0 0
lfoot -30.3723 -14.1242 0
ltoes 49.547 0 0
rfemur -29.0304 -18.3798 -7.66289
rtibia 49.2841 0 0
rfoot -27.1348 13.9884 0
rtoes 58.3935 0 0
lowerback -2.1896 -1.97387 -0.840554
upperback -0.63532 -2.57934 -6.7714
thorax 0.297131 -1.30527 -6.62788
lowerneck -11.3391 0.0673864 5.33722
upperneck 3.40251 -0.839621 2.7066
head 3.12151 -0.219114 -0.107262
lclavicle 1.35032e-14 7.95139e-15 0
lhumerus -58.1232 -44.5019 115.545
lradius 54.922 0 0
lwrist 24.1657 0 0
lhand 37.9663 29.4576 0
lfingers 7.12502 0 0
lthumb 60.6688 42.361 0
rclavicle 1.35032e-14 7.95139e-15 0
rhumerus -20.2623 -8.54959 -28.7995
rradius 85.9079 0 0
rwrist -21.7001 0 0
rhand -28.9209 -47.0187 0
rfingers 7.12502 0 0
rthumb -2.46273 -559.479 0
206
root 4.84813 15.1676 -25.4852 7.41031 1.44185 4.71604
lfemur 3.92171 -4.3886 2.599
ltibia 8.30229 0 0
lfoot -31.0797 -13.5463 0
ltoes 49.3256 0 0
rfemur -29.5979 -18.7899 -7.53294
rtibia 49.701 0 0
rfoot -27.1679 14.6843 0
rtoes 58.7014 0 0
lowerback -2.08421 -1.93107 -0.820353
upperback -0.643549 -2.52902 -6.78017
thorax 0.233428 -1.28118 -6.64239
lowerneck -11.2531 0.200172 5.54231
upperneck 3.37793 -0.679265 2.59801
head 3.09499 -0.142624 -0.168493
lclavicle 1.12858e-14 9.01157e-15 0
lhumerus -58.3725 -44.6802 115.752
lradius 54.9651 0 0
lwrist 24.4348 0 0
lhand 37.7459 29.3635 0
lfingers 7.12502 0 0
lthumb 60.484 42.4886 0
rclavicle 1.12858e-14 9.01157e-15 0
rhumerus -18.3966 -12.2225 -26.7819
rradius 83.4277 0 0
rwrist -21.8864 0 0
rhand -32.7103 -49.6941 0
rfingers 7.12502 0 0
rthumb -6.08209 -570.972 0
207
root 4.82381 15.1425 -25.4972 7.46886 1.05523 4.72903
lfemur 4.07487 -4.26369 2.51527
ltibia 8.35075 0 0
lfoot -31.787 -12.9685 0
ltoes 49.1041 0 0
rfemur -30.1654 -19.1999 -7.403
rtibia 50.1179 0 0
rfoot -27.2011 15.3802 0
rtoes 59.0092 0 0
lowerback -1.97882 -1.88827 -0.800153
upperback -0.651777 -2.47871 -6.78894
thorax 0.169724 -1.25709 -6.65689
lowerneck -11.1671 0.332957 5.74739
upperneck 3.35335 -0.518909 2.48943
head 3.06846 -0.0661335 -0.229724
lclavicle 9.06837e-15 1.00718e-14 0
lhumerus -58.6218 -44.8585 115.959
lradius 55.0082 0 0
lwrist 24.7038 0 0
lhand 37.5256 29.2693 0
lfingers 7.12502 0 0
lthumb 60.2992 42.6162 0
rclavicle 9.06837e-15 1.00718e-14 0
rhumerus -16.531 -15.8954 -24.7642
rradius 80.9475 0 0
rwrist -22.0726 0 0
rhand -36.4997 -52.3696 0
rfingers 7.12502 0 0
rthumb -9.70145 -582.464 0
208
root 4.79949 15.1175 -25.5091 7.52742 0.668617 4.74202
lfemur 4.22802 -4.13877 2.43154
ltibia 8.3992 0 0
lfoot -32.4943 -12.3906 0
ltoes 48.8826 0 0
rfemur -30.7329 -19.61 -7.27305
rtibia 50.5348 0 0
rfoot -27.2342 16.0761 0
rtoes 59.317 0 0
lowerback -1.87343 -1.84548 -0.779952
upperback -0.660005 -2.4284 -6.79772
thorax 0.106021 -1.233 -6.67139
lowerneck -11.0811 0.465742 5.95247
upperneck 3.32877 -0.358553 2.38084
head 3.04194 0.0103569 -0.290954
lclavicle 6.85097e-15 1.11319e-14 0
lhumerus -58.871 -45.0368 116.166
lradius 55.0514 0 0
lwrist 24.9728 0 0
lhand 37.3052 29.1751 0
lfingers 7.12502 0 0
lthumb 60.1144 42.7438 0
rclavicle 6.85097e-15 1.11319e-14 0
rhumerus -14.6653 -19.5682 -22.7465
rradius 78.4673 0 0
rwrist -22.2588 0 0
rhand -40.2891 -55.045 0
rfingers 7.12502 0 0
rthumb -13.3208 -593.956 0
209
root 4.77516 15.0924 -25.5211 7.58598 0.281999 4.75501
lfemur 4.38118 -4.01386 2.34781
ltibia 8.44766 0 0
lfoot -33.2016 -11.8128 0
ltoes 48.6611 0 0
rfemur -31.3005 -20.0201 -7.1431
rtibia 50.9516 0 0
rfoot -27.2673 16.772 0
rtoes 59.6248 0 0
lowerback -1.76803 -1.80268 -0.759752
upperback -0.668233 -2.37809 -6.80649
thorax 0.0423177 -1.20891 -6.68589
lowerneck -10.9951 0.598527 6.15755
upperneck 3.30419 -0.198197 2.27226
head 3.01541 0.0868472 -0.352185
lclavicle 4.63358e-15 1.21921e-14 0
lhumerus -59.1203 -45.2151 116.373
lradius 55.0945 0 0
lwrist 25.2418 0 0
lhand 37.0849 29.0809 0
lfingers 7.12502 0 0
lthumb 59.9297 42.8713 0
rclavicle 4.63358e-15 1.21921e-14 0
rhumerus -12.7997 -23.2411 -20.7288
rradius 75.9871 0 0
rwrist -22.445 0 0
rhand -44.0785 -57.7204 0
rfingers 7.12502 0 0
rthumb -16.9402 -605.448 0
210
root 4.75084 15.0673 -25.533 7.64453 -0.104619 4.76801
lfemur 4.53433 -3.88894 2.26407
ltibia 8.49611 0 0
lfoot -33.9089 -11.2349 0
ltoes 48.4396 0 0
rfemur -31.868 -20.4301 -7.01316
rtibia 51.3685 0 0
rfoot -27.3005 17.4679 0
rtoes 59.9327 0 0
lowerback -1.66264 -1.75989 -0.739551
upperback -0.676461 -2.32777 -6.81527
thorax -0.0213856 -1.18482 -6.7004
lowerneck -10.9091 0.731312 6.36264
upperneck 3.27961 -0.037841 2.16367
head 2.98889 0.163338 -0.413416
lclavicle 2.41618e-15 1.32523e-14 0
lhumerus -59.3696 -45.3934 116.58
lradius 55.1376 0 0
lwrist 25.5109 0 0
lhand 36.8645 28.9867 0
lfingers 7.12502 0 0
lthumb 59.7449 42.9989 0
rclavicle 2.41618e-15 1.32523e-14 0
rhumerus -10.934 -26.914 -18.7111
rradius 73.5069 0 0
rwrist -22.6313 0 0
rhand -47.8679 -60.3959 0
rfingers 7.12502 0 0
rthumb -20.5595 -616.941 0
211
root 4.72652 15.0422 -25.545 7.70309 -0.491237 4.781
lfemur 4.68749 -3.76403 2.18034
ltibia 8.54457 0 0
lfoot -34.6162 -10.6571 0
ltoes 48.2181 0 0
rfemur -32.4355 -20.8402 -6.88321
rtibia 51.7854 0 0
rfoot -27.3336 18.1638 0
rtoes 60.2405 0 0
lowerback -1.55725 -1.71709 -0.719351
upperback -0.684689 -2.27746 -6.82404
thorax -0.0850889 -1.16073 -6.7149
lowerneck -10.8231 0.864097 6.56772
upperneck 3.25503 0.122515 2.05509
head 2.96236 0.239828 -0.474647
lclavicle 1.98785e-16 1.43125e-14 0
lhumerus -59.6189 -45.5717 116.787
lradius 55.1807 0 0
lwrist 25.7799 0 0
lhand 36.6442 28.8925 0
lfingers 7.12502 0 0
lthumb 59.5601 43.1265 0
rclavicle 1.98785e-16 1.43125e-14 0
rhumerus -9.06837 -30.5869 -16.6934
rradius 71.0267 0 0
rwrist -22.8175 0 0
rhand -51.6573 -63.0713 0
rfingers 7.12502 0 0
rthumb -24.1789 -628.433 0
